# xmcd CD database file
#
# Track frame offsets:
#	150
#	25118
#	52861
#	56297
#	78368
#	100363
#	103326
#	121581
#	146799
#	170969
#	173473
#	195503
#
# Disc length: 2861 seconds
#
# Revision: 3
# Processed by: cddbd v1.5.2PL0 Copyright (c) Steve Scherf et al.
# Submitted via: CdAid (MTCDDB.DLL V2003.12.21)
#
DISCID=970b2b0c
DTITLE=Cordovan - Cordovan
DYEAR=2004
DGENRE=Techno
TTITLE0=Magma
TTITLE1=Gamma
TTITLE2=Lacuna I
TTITLE3=Blue Goo
TTITLE4=TK421
TTITLE5=Lacuna II
TTITLE6=Fun With Sophie
TTITLE7=Sidewinder
TTITLE8=Skinny Girl
TTITLE9=Lacuna III
TTITLE10=Black Rock Dub
TTITLE11=Sneaky's Beat
EXTD=ID3G:  18 YEAR: 2004
EXTT0=
EXTT1=
EXTT2=
EXTT3=
EXTT4=
EXTT5=
EXTT6=
EXTT7=
EXTT8=
EXTT9=
EXTT10=
EXTT11=
PLAYORDER=
